<svg xmlns="http://www.w3.org/2000/svg" version="1.1" xmlns:xlink="http://www.w3.org/1999/xlink" width="512" height="512" x="0" y="0" viewBox="0 0 682.667 682.667" style="enable-background:new 0 0 512 512" xml:space="preserve" class="hovered-paths"><g><defs><clipPath id="a" clipPathUnits="userSpaceOnUse"><path d="M0 512h512V0H0Z" fill="#000000" opacity="1" data-original="#000000"></path></clipPath></defs><g clip-path="url(#a)" transform="matrix(1.33333 0 0 -1.33333 0 682.667)"><path d="M0 0c0 44.939 36.754 81.294 81.842 80.645 43.675-.628 79.188-36.446 79.465-80.124.154-24.46-10.584-46.414-27.646-61.305-1.801-1.571-1.541-4.439.516-5.656l15.197-8.992c2.457-1.454 1.426-5.22-1.429-5.22l-68.818.017C35.288-79.82 0-44.033 0 0" style="fill-opacity:1;fill-rule:nonzero;stroke:none" transform="translate(3.806 431.346)" fill="#7acaa6" data-original="#7acaa6"></path><path d="m0 0-15.197 8.992c-2.046 1.21-2.33 4.074-.539 5.636 17.257 15.05 28.051 37.322 27.66 62.108-.678 42.873-35.378 78.066-78.238 79.315a81.219 81.219 0 0 1-17.727-1.42c37.048-7.101 65.281-39.757 65.527-78.678.119-18.849-6.229-36.209-16.956-49.996-6.477-8.326-4.372-20.397 4.706-25.769l.318-.188c2.43-1.437 1.444-5.132-1.339-5.212l30.356-.008C1.426-5.22 2.457-1.454 0 0" style="fill-opacity:1;fill-rule:nonzero;stroke:none" transform="translate(153.18 355.914)" fill="#57be92" data-original="#57be92"></path><path d="M0 0h-182.966c-45.698 0-70.705 53.256-41.518 88.419l1.623 1.956a86.309 86.309 0 0 1 19.896 55.123v35.283c0 61.842 50.132 111.974 111.974 111.974 61.842 0 111.974-50.132 111.974-111.974v-36.474a86.308 86.308 0 0 1 20.289-55.593C70.824 53.622 45.878 0 0 0" style="fill-opacity:1;fill-rule:nonzero;stroke:none" transform="translate(396.792 219.245)" fill="#c59191" data-original="#c59191" class="hovered-path"></path><path d="M0 0v-120.96h-375.319V-.91c0 27.18 16.289 51.71 41.33 62.25l60.59 26.34L-253 96.55c15.48 6.73 25.49 22 25.49 38.88v7.83h79.691v-7.43c0-16.95 10.109-32.28 25.699-38.96l81.95-35.13C-15.75 50.92 0 26.72 0 0" style="fill-opacity:1;fill-rule:nonzero;stroke:none" transform="translate(492.97 128.57)" fill="#ffffff" data-original="#ffffff"></path><path d="M0 0a290.525 290.525 0 0 1 88.217-12.12 290.485 290.485 0 0 1 83.27 13.727l9.88 23.527-30.087 12.895a42.392 42.392 0 0 0-25.691 38.964v7.424H45.898v-7.828a42.39 42.39 0 0 0-25.489-38.876L-3.958 27.118Z" style="fill-opacity:1;fill-rule:nonzero;stroke:none" transform="translate(219.565 187.41)" fill="#ffcebf" data-original="#ffcebf" class=""></path><path d="m0 0-61.731 26.459-.011-.001v-209.161H40.176v120.958C40.176-35.029 24.426-10.823 0 0" style="fill-opacity:1;fill-rule:nonzero;stroke:none" transform="translate(452.796 190.315)" fill="#8795de" data-original="#8795de"></path><path d="M0 0v-208.64h-101.92v120.05c0 27.18 16.289 51.71 41.33 62.25z" style="fill-opacity:1;fill-rule:nonzero;stroke:none" transform="translate(219.57 216.25)" fill="#8795de" data-original="#8795de"></path><path d="M0 0a67.033 67.033 0 0 1 25.868 5.163 42.387 42.387 0 0 0-13.646 31.152v7.424h-79.691v-7.828a42.32 42.32 0 0 0-3.711-17.332C-59.113 7.076-42.788 0-24.801 0Z" style="fill-opacity:1;fill-rule:nonzero;stroke:none" transform="translate(332.933 228.088)" fill="#ffb09e" data-original="#ffb09e"></path><path d="M0 0v-65.925c0-37.139-30.107-67.247-67.247-67.247h-24.801c-37.139 0-67.247 30.108-67.247 67.247V0c0 24.161 19.586 43.748 43.747 43.748h71.8C-19.587 43.748 0 24.161 0 0" style="fill-opacity:1;fill-rule:nonzero;stroke:none" transform="translate(384.957 391.707)" fill="#ffcebf" data-original="#ffcebf" class=""></path><path d="M0 0c-.03-.091-.066-.179-.094-.272-2.431-8.395-8.81-24.253-24.228-36.142-7.18-5.536-15.368-9.537-24.339-11.891a7.612 7.612 0 0 1 3.863-14.724c10.953 2.874 20.969 7.773 29.772 14.56A81.423 81.423 0 0 1-.045-33.397c.016.59.045 1.177.045 1.771z" style="fill-opacity:1;fill-rule:nonzero;stroke:none" transform="translate(384.957 357.407)" fill="#7a6d79" data-original="#7a6d79"></path><path d="M0 0h-17.837c-8.119 0-14.701 6.582-14.701 14.701 0 8.118 6.582 14.7 14.701 14.7H0c8.119 0 14.701-6.582 14.701-14.7C14.701 6.582 8.119 0 0 0" style="fill-opacity:1;fill-rule:nonzero;stroke:none" transform="translate(327.948 288.06)" fill="#685e68" data-original="#685e68"></path><path d="M0 0c1.708 21.54 22.33 35.835 42.066 43.239 32.65-19.564 54.508-55.285 54.508-96.116v-7.698a92.202 92.202 0 0 0-5.377-.975c-10.873-1.624-20.133-.922-26.458 0C23.977-56.12-2.063-26.015 0 0" style="fill-opacity:1;fill-rule:nonzero;stroke:none" transform="translate(321.201 452.903)" fill="#b98080" data-original="#b98080" class=""></path><path d="M0 0c25.288 0 48.616-8.386 67.36-22.525-9.35-16.271-30.822-48.441-71.086-72.257-29.889-17.681-58.073-23.622-75.43-25.865h-32.818v8.673C-111.974-50.132-61.842 0 0 0" style="fill-opacity:1;fill-rule:nonzero;stroke:none" transform="translate(305.8 512)" fill="#c59191" data-original="#c59191" class="hovered-path"></path><path d="M0 0h-243.655l-13.439 126.776c-.953 8.992 6.096 16.828 15.138 16.828H-1.699c9.042 0 16.092-7.836 15.137-16.828z" style="fill-opacity:1;fill-rule:nonzero;stroke:none" transform="translate(430.972 7.611)" fill="#efedef" data-original="#efedef"></path><path d="M0 0h-30.446c9.043 0 16.092-7.836 15.138-16.828l-13.439-126.776H1.699L15.138-16.828C16.091-7.836 9.042 0 0 0" style="fill-opacity:1;fill-rule:nonzero;stroke:none" transform="translate(429.272 151.215)" fill="#e5e1e5" data-original="#e5e1e5"></path><path d="M0 0h-497a7.5 7.5 0 0 0-7.5 7.5A7.5 7.5 0 0 0-497 15H0a7.5 7.5 0 0 0 7.5-7.5A7.5 7.5 0 0 0 0 0" style="fill-opacity:1;fill-rule:nonzero;stroke:none" transform="translate(504.5)" fill="#c9bfc8" data-original="#c9bfc8"></path><path d="M0 0c0-11.771-9.542-21.312-21.312-21.312-11.77 0-21.312 9.541-21.312 21.312s9.542 21.312 21.312 21.312C-9.542 21.312 0 11.771 0 0" style="fill-opacity:1;fill-rule:nonzero;stroke:none" transform="translate(330.456 79.413)" fill="#c9bfc8" data-original="#c9bfc8"></path><path d="M0 0a7.61 7.61 0 0 0-7.611-7.611 7.611 7.611 0 1 0 0 15.223A7.611 7.611 0 0 0 0 0" style="fill-opacity:1;fill-rule:nonzero;stroke:none" transform="translate(61.625 431.347)" fill="#ffffff" data-original="#ffffff"></path><path d="M0 0a7.61 7.61 0 0 0-7.611-7.611 7.611 7.611 0 1 0 0 15.223A7.612 7.612 0 0 0 0 0" style="fill-opacity:1;fill-rule:nonzero;stroke:none" transform="translate(92.071 431.347)" fill="#ffffff" data-original="#ffffff"></path><path d="M0 0a7.611 7.611 0 0 0-7.612-7.611A7.612 7.612 0 1 0 0 0" style="fill-opacity:1;fill-rule:nonzero;stroke:none" transform="translate(122.518 431.347)" fill="#ffffff" data-original="#ffffff"></path></g></g></svg>