<svg xmlns="http://www.w3.org/2000/svg" version="1.1" xmlns:xlink="http://www.w3.org/1999/xlink" width="512" height="512" x="0" y="0" viewBox="0 0 512 512" style="enable-background:new 0 0 512 512" xml:space="preserve" class=""><g><g fill-rule="evenodd" clip-rule="evenodd"><path fill="#e2e3e3" d="M45.275 24.186h180.753c8.382 6.659 5.893 24.8 5.893 36.274v38.408H16.333C12.295 98.868 9 95.574 9 91.535V60.46c0-19.951 16.323-36.274 36.275-36.274z" opacity="1" data-original="#e2e3e3" class=""></path><path fill="#dddddd" d="M66.902 98.868h14.647V60.46c0-19.903-16.245-36.196-36.13-36.274h-.144c-2.507 0-4.957.258-7.324.749 16.472 3.412 28.951 18.081 28.951 35.526z" opacity="1" data-original="#dddddd"></path><path fill="#eff4f7" d="M380.839 24.186c19.951 0 36.274 16.323 36.274 36.274v409.233c0 4.039-3.294 7.333-7.333 7.333H88.882c-4.039 0-7.333-3.294-7.333-7.333V60.46c0-19.951-16.323-36.274-36.274-36.274z" opacity="1" data-original="#eff4f7" class=""></path><path fill="#e2e3e3" d="M335.798 412.997a7.99 7.99 0 1 1 4.125 15.437c-26.679 7.148-34.874-.4-42.386-7.319-2.472-2.277-4.81-4.43-8.361-4.558-4.634-.167-10.451 5.25-16.524 10.906-8.928 8.314-18.26 17.006-31.412 17.006-19.286 0-22.415-14.305-25.56-28.678-1.787-8.169-3.584-16.378-10.383-16.378-7.748 0-12.174 4.429-17.175 9.434-9.237 9.243-19.855 19.869-47.319 19.869a8 8 0 0 1 0-16c20.898 0 28.978-8.085 36.007-15.119 7.519-7.525 14.174-14.184 28.488-14.184 19.663 0 22.843 14.537 26.008 29.003 1.76 8.046 3.512 16.053 9.935 16.053 6.908 0 13.874-6.487 20.538-12.693 8.535-7.949 16.709-15.561 27.961-15.156 9.488.341 13.922 4.426 18.612 8.745 4.416 4.071 9.238 8.511 27.446 3.632zM130.915 84.743a8 8 0 0 1 16 0v7.695a25.97 25.97 0 0 1 7.402 2.494 26.146 26.146 0 0 1 9.241 7.905 7.989 7.989 0 0 1-12.937 9.375c-.952-1.317-2.171-2.382-3.553-3.092-1.318-.677-2.851-1.06-4.513-1.06h-5.644c-2.721 0-5.201 1.119-7.005 2.923-1.803 1.803-2.922 4.283-2.922 7.005s1.119 5.202 2.922 7.005 4.284 2.923 7.005 2.923h4.008c7.138 0 13.622 2.915 18.317 7.61s7.61 11.179 7.61 18.317c0 7.139-2.915 13.622-7.61 18.318a25.955 25.955 0 0 1-12.321 6.907v8.019a8 8 0 0 1-16 0v-7.695a25.98 25.98 0 0 1-7.402-2.494 26.136 26.136 0 0 1-9.241-7.905 7.989 7.989 0 0 1 12.937-9.375c.952 1.316 2.171 2.382 3.553 3.092 1.318.677 2.851 1.06 4.513 1.06h5.644c2.722 0 5.202-1.119 7.005-2.923 1.803-1.803 2.922-4.283 2.922-7.005s-1.119-5.202-2.922-7.005-4.283-2.922-7.005-2.922h-4.008c-7.138 0-13.622-2.915-18.317-7.61-4.695-4.696-7.61-11.18-7.61-18.318s2.915-13.622 7.61-18.318a25.967 25.967 0 0 1 12.321-6.907zm73.78 8a8 8 0 0 1 0-16h154.984a8 8 0 0 1 0 16zm-85.711 251.233a8 8 0 0 1 0-16h240.695a8 8 0 0 1 0 16zm0-50.247a8 8 0 0 1 0-16h240.695a8 8 0 0 1 0 16zm0-50.246a8 8 0 0 1 0-16h240.695a8 8 0 0 1 0 16zm85.711-50.247a8 8 0 0 1 0-16h154.984a8 8 0 0 1 0 16zm0-50.246a8 8 0 0 1 0-16h154.984a8 8 0 0 1 0 16z" opacity="1" data-original="#e2e3e3" class=""></path><ellipse cx="413.47" cy="398.284" fill="#64b5f6" rx="89.53" ry="89.531" transform="matrix(.024 -1 1 .024 5.462 802.162)" opacity="1" data-original="#64b5f6" class=""></ellipse><path fill="#42a5f5" d="M467.749 327.086C489.173 343.445 503 369.247 503 398.284c0 49.446-40.084 89.53-89.53 89.53-27.072 0-51.336-12.016-67.753-31.005 15.059 11.498 33.87 18.333 54.28 18.333 49.446 0 89.53-40.084 89.53-89.53-.001-22.375-8.209-42.832-21.778-58.526z" opacity="1" data-original="#42a5f5"></path><path fill="#eff4f7" d="M438.43 365.723c5.235-5.264 13.746-5.288 19.01-.053s5.288 13.746.053 19.01l-45.736 46.165c-5.2 5.229-13.632 5.286-18.903.156l-23.247-22.659c-5.322-5.177-5.44-13.688-.263-19.01s13.688-5.44 19.01-.263l13.708 13.363z" opacity="1" data-original="#eff4f7" class=""></path><path fill="#e2e3e3" d="M438.43 365.723c5.235-5.264 13.746-5.288 19.01-.053 4.015 3.993 4.981 9.893 2.89 14.803-.66-1.549-1.622-3-2.89-4.261-5.264-5.235-13.775-5.211-19.01.053l-36.369 36.71-13.708-13.363c-5.322-5.177-13.833-5.059-19.01.263a13.382 13.382 0 0 0-2.733 4.103c-2.058-4.835-1.16-10.642 2.733-14.645 5.177-5.322 13.688-5.44 19.01-.263l13.708 13.363z" opacity="1" data-original="#e2e3e3" class=""></path><path d="M453.401 375.186a5.4 5.4 0 0 0-1.598-3.844 5.435 5.435 0 0 0-3.844-1.58h-.009a5.4 5.4 0 0 0-3.839 1.594l-36.368 36.707a7.997 7.997 0 0 1-11.261.099l-13.709-13.369a5.407 5.407 0 0 0-3.791-1.528h-.08a5.355 5.355 0 0 0-3.82 1.651 5.35 5.35 0 0 0-1.542 3.867 5.415 5.415 0 0 0 1.641 3.82l23.258 22.673c2.122 2.056 5.551 2.037 7.644-.07l45.729-46.153c1.028-1.047 1.599-2.41 1.589-3.867zm9.682-15.189c4.06 4.037 6.31 9.417 6.319 15.147.019 5.73-2.202 11.12-6.23 15.18l-45.729 46.153c-4.183 4.197-9.7 6.296-15.223 6.296-5.399 0-10.799-2.009-14.949-6.036l-23.253-22.659c-4.098-3.994-6.399-9.342-6.479-15.072s2.07-11.144 6.069-15.251a21.3 21.3 0 0 1 15.072-6.489c5.739-.071 11.143 2.08 15.251 6.069l8.031 7.828 30.789-31.067s0-.009.009-.009c4.041-4.06 9.413-6.314 15.142-6.324h.057a21.308 21.308 0 0 1 15.124 6.234zm31.916 38.287c0 44.96-36.566 81.531-81.526 81.531-44.965 0-81.531-36.571-81.531-81.531s36.566-81.531 81.531-81.531c44.96 0 81.526 36.571 81.526 81.531zm-148.598 70.741H89.553V60.462c0-10.738-3.853-20.599-10.233-28.28h301.52c15.59 0 28.271 12.685 28.271 28.28v240.395c-18.84.825-36.311 7.036-50.911 17.118H128.981c-4.409 0-7.998 3.579-7.998 7.998 0 4.423 3.589 8.003 7.998 8.003h211.228c-14.878 16.93-23.989 39.028-24.258 63.219-3.641-3.103-8.55-6.328-16.208-6.602-11.233-.377-19.754 7.512-27.983 15.17-7.007 6.531-13.638 12.709-20.518 12.709-5.343 0-7.007-2.707-9.931-16.076-2.528-11.544-6.338-28.983-26.007-28.983-14.355 0-21.862 7.522-28.493 14.152-7.79 7.79-15.142 15.152-36.009 15.152-4.419 0-7.998 3.579-7.998 7.998s3.579 7.998 7.998 7.998c27.502 0 38.961-11.469 47.318-19.839 6.389-6.39 9.794-9.46 17.184-9.46 5.649 0 7.389 2.759 10.379 16.401 2.49 11.408 6.267 28.658 25.559 28.658 13.181 0 22.867-9.031 31.431-17 5.829-5.437 11.869-11.096 16.5-10.889 3.428.122 4.952 1.401 8.347 4.541 2.542 2.339 5.791 5.329 10.554 7.437 4.168 19.641 14.265 37.122 28.327 50.463zM73.552 90.864V60.462c0-15.595-12.681-28.28-28.28-28.28-15.59 0-28.271 12.685-28.271 28.28v30.402zM511 398.284c0 53.778-43.748 97.531-97.527 97.531-16.043 0-31.19-3.9-44.559-10.789H88.883c-8.451 0-15.331-6.88-15.331-15.331v-362.83H16.331C7.881 106.865 1 99.994 1 91.534V60.462c0-24.418 19.863-44.276 44.271-44.276H380.84c24.409 0 44.271 19.858 44.271 44.276v240.994C473.419 307.223 511 348.443 511 398.284zm-364.089-264.37h4.008c5.47 0 9.931 4.447 9.931 9.931 0 5.47-4.461 9.917-9.931 9.917h-5.64c-3.169 0-6.178-1.547-8.059-4.15-2.589-3.579-7.588-4.376-11.167-1.787s-4.381 7.588-1.792 11.167a26.06 26.06 0 0 0 16.661 10.403v7.687a7.997 7.997 0 0 0 7.998 8.002c4.409 0 8.003-3.579 8.003-8.002v-8.017c11.408-2.711 19.929-12.992 19.929-25.22 0-14.303-11.639-25.932-25.932-25.932h-4.008c-5.47 0-9.927-4.452-9.927-9.931 0-5.465 4.456-9.927 9.927-9.927h5.64c3.169 0 6.182 1.556 8.059 4.159a8.002 8.002 0 0 0 11.172 1.792 8.003 8.003 0 0 0 1.792-11.172 26.071 26.071 0 0 0-16.652-10.403V74.74c0-4.419-3.593-7.998-8.003-7.998a7.996 7.996 0 0 0-7.998 7.998v8.012c-11.422 2.721-19.938 13.001-19.938 25.229-.001 14.304 11.638 25.933 25.927 25.933zm-17.93 149.81h240.701a7.996 7.996 0 0 0 7.998-7.998c0-4.414-3.579-8.003-7.998-8.003H128.981c-4.409 0-7.998 3.589-7.998 8.003 0 4.419 3.589 7.998 7.998 7.998zm0-50.242h240.701c4.419 0 7.998-3.579 7.998-7.998a8 8 0 0 0-7.998-8.003H128.981c-4.409 0-7.998 3.584-7.998 8.003s3.589 7.998 7.998 7.998zm85.718-150.739h154.983a7.997 7.997 0 0 0 7.998-8.003 7.996 7.996 0 0 0-7.998-7.998H214.699a7.996 7.996 0 0 0-7.998 7.998 7.997 7.997 0 0 0 7.998 8.003zm0 50.242h154.983a8 8 0 0 0 0-16H214.699a8 8 0 0 0 0 16zm-7.998 42.248a7.996 7.996 0 0 0 7.998 7.998h154.983c4.419 0 7.998-3.579 7.998-7.998s-3.579-7.998-7.998-7.998H214.699a7.998 7.998 0 0 0-7.998 7.998z" fill="#000000" opacity="1" data-original="#000000" class=""></path></g></g></svg>