<svg xmlns="http://www.w3.org/2000/svg" version="1.1" xmlns:xlink="http://www.w3.org/1999/xlink" width="512" height="512" x="0" y="0" viewBox="0 0 512 512" style="enable-background:new 0 0 512 512" xml:space="preserve" class=""><g><path fill="#da0812" fill-rule="evenodd" d="M255.751.442c141.384 0 256 114.587 256 255.963s-114.616 256.035-256 256.035-256-114.658-256-256.04S114.365.442 255.751.442zm0 168.591a30.656 30.656 0 0 0-30.175 25.542h60.348a30.654 30.654 0 0 0-30.173-25.542zm0-30.773a10.34 10.34 0 1 0 10.34 10.341 10.353 10.353 0 0 0-10.34-10.341zm-31.235 66.409h62.469a9.179 9.179 0 0 0 9.1-10.368A40.739 40.739 0 0 0 271.162 162a20.434 20.434 0 1 0-30.822 0 40.736 40.736 0 0 0-24.924 32.3 9.178 9.178 0 0 0 9.1 10.371zM203.1 232.844a5.047 5.047 0 0 0 5.046 5.05h95.212a5.047 5.047 0 1 0 0-10.094h-95.213a5.045 5.045 0 0 0-5.046 5.044zm145.559 47.191a5.046 5.046 0 0 0-5.046-5.044H167.89a5.046 5.046 0 1 0 0 10.091h175.722a5.047 5.047 0 0 0 5.046-5.047zm0 47.2a5.046 5.046 0 0 0-5.046-5.047H167.89a5.047 5.047 0 0 0 0 10.094h175.722a5.047 5.047 0 0 0 5.046-5.047zm0 47.193a5.046 5.046 0 0 0-5.046-5.046h-71.4a5.047 5.047 0 0 0 0 10.093h71.4a5.05 5.05 0 0 0 5.046-5.047zm22.577 25.855V112.606a7.58 7.58 0 0 0-7.571-7.571H147.838a7.579 7.579 0 0 0-7.57 7.571V400.28a7.576 7.576 0 0 0 7.57 7.567h215.826a7.577 7.577 0 0 0 7.571-7.567zm10.093-287.674a17.685 17.685 0 0 0-17.664-17.665H147.838a17.685 17.685 0 0 0-17.664 17.665V400.28a17.682 17.682 0 0 0 17.664 17.661h215.826a17.682 17.682 0 0 0 17.664-17.661z" opacity="1" data-original="#f44336" class=""></path></g></svg>